<svg xmlns="http://www.w3.org/2000/svg" width="64" height="64" viewBox="0 0 64 64">
  <defs>
    <linearGradient id="g" x1="0" y1="0" x2="1" y2="1">
      <stop offset="0%" stop-color="#4f46e5"/>
      <stop offset="100%" stop-color="#06b6d4"/>
    </linearGradient>
  </defs>
  <rect x="2" y="2" width="60" height="60" rx="14" fill="url(#g)"/>
  <g fill="#fff" fill-opacity="0.95">
    <path d="M18 21h14c6 0 10 4 10 9s-4 9-10 9h-7v4h-7V21zm14 12c2.2 0 4-1.6 4-3s-1.8-3-4-3h-7v6h7z"/>
    <path d="M34 43v-6.5l5 4.5 5-4.5V43h6V21h-6l-5 4.5-5-4.5h-6v22h6z"/>
  </g>
</svg>
